<?xml version="1.0" encoding="UTF-8" standalone="no"?>
<!-- Created with Inkscape (http://www.inkscape.org/) -->

<svg
   xmlns:dc="http://purl.org/dc/elements/1.1/"
   xmlns:cc="http://creativecommons.org/ns#"
   xmlns:rdf="http://www.w3.org/1999/02/22-rdf-syntax-ns#"
   xmlns:svg="http://www.w3.org/2000/svg"
   xmlns="http://www.w3.org/2000/svg"
   xmlns:sodipodi="http://sodipodi.sourceforge.net/DTD/sodipodi-0.dtd"
   xmlns:inkscape="http://www.inkscape.org/namespaces/inkscape"
   width="170.69362mm"
   height="170.66541mm"
   viewBox="0 0 170.69362 170.66541"
   version="1.1"
   id="svg32449"
   inkscape:version="0.92.0 r15299"
   sodipodi:docname="now_on_kickstarter.svg">
  <defs
     id="defs32443" />
  <sodipodi:namedview
     id="base"
     pagecolor="#ffffff"
     bordercolor="#666666"
     borderopacity="1.0"
     inkscape:pageopacity="0.0"
     inkscape:pageshadow="2"
     inkscape:zoom="1.1443359"
     inkscape:cx="547.65418"
     inkscape:cy="311.10551"
     inkscape:document-units="mm"
     inkscape:current-layer="layer1"
     showgrid="false"
     fit-margin-top="0"
     fit-margin-left="0"
     fit-margin-right="0"
     fit-margin-bottom="0"
     inkscape:window-width="1920"
     inkscape:window-height="1051"
     inkscape:window-x="0"
     inkscape:window-y="0"
     inkscape:window-maximized="1" />
  <metadata
     id="metadata32446">
    <rdf:RDF>
      <cc:Work
         rdf:about="">
        <dc:format>image/svg+xml</dc:format>
        <dc:type
           rdf:resource="http://purl.org/dc/dcmitype/StillImage" />
        <dc:title></dc:title>
      </cc:Work>
    </rdf:RDF>
  </metadata>
  <g
     inkscape:label="Layer 1"
     inkscape:groupmode="layer"
     id="layer1"
     transform="translate(-3.4244853,-50.803812)">
    <g
       id="g33095"
       transform="translate(-210.82828,-165.37242)">
      <path
         style="fill:#2bde73;fill-opacity:1;stroke-width:0.35277778"
         d="m 307.36381,386.5094 c -2.63607,-0.68101 -3.75053,-1.18288 -7.04153,-3.17099 -8.93985,-5.40058 -16.26945,-6.55755 -26.64875,-4.20645 -4.06318,0.92038 -5.44902,1.08931 -7.81598,0.95274 -6.26803,-0.36165 -10.45676,-3.88644 -13.50069,-11.36074 -4.05425,-9.95515 -9.54726,-15.58058 -19.12471,-19.58572 -6.27087,-2.62238 -9.33244,-5.10756 -11.13046,-9.03495 -1.46083,-3.19088 -1.48888,-6.35838 -0.11152,-12.59375 1.07418,-4.86286 1.13731,-5.51946 0.98192,-10.21349 -0.14876,-4.49395 -0.28761,-5.37784 -1.33291,-8.48483 -0.70633,-2.09947 -2.09404,-5.02898 -3.51615,-7.42271 -2.6739,-4.50079 -2.73879,-4.64012 -3.38899,-7.27705 -0.97019,-3.93464 -0.44662,-8.3998 1.32761,-11.32219 0.54121,-0.89145 3.15706,-3.66957 5.81301,-6.17362 8.42305,-7.94129 10.81284,-12.73302 11.93921,-23.93907 0.69545,-6.919 2.13501,-10.51836 5.20123,-13.00475 3.14528,-2.55051 5.26905,-3.25007 11.98571,-3.94807 11.06975,-1.15036 15.68436,-3.4683 23.62946,-11.86918 2.57824,-2.72614 5.36017,-5.35111 6.18208,-5.83327 3.07888,-1.80621 7.46994,-2.33481 11.38202,-1.37018 2.64685,0.65265 2.8826,0.76049 6.72365,3.07569 8.91858,5.37567 16.25268,6.52779 26.61385,4.18081 8.02143,-1.81699 12.23411,-1.16214 16.25672,2.52708 2.16115,1.98204 3.54637,4.20411 5.43256,8.71454 4.00514,9.57744 9.63057,15.07046 19.58572,19.12471 7.37909,3.00515 10.94839,7.18921 11.3691,13.32729 0.15439,2.25253 -0.0142,3.64363 -0.96074,7.92879 -1.07418,4.86287 -1.1373,5.51946 -0.98192,10.2135 0.14876,4.49394 0.28761,5.37783 1.33291,8.48482 0.70633,2.09947 2.09404,5.02898 3.51615,7.42271 2.6739,4.50079 2.73879,4.64012 3.38899,7.27705 0.96491,3.91321 0.43629,8.30108 -1.37174,11.38624 -0.48303,0.82422 -3.06515,3.56044 -5.73806,6.08048 -8.46078,7.97691 -10.79244,12.64523 -11.98459,23.99488 -0.73598,7.00669 -2.13272,10.5016 -5.18667,12.97804 -3.15323,2.55695 -5.2646,3.2497 -12.05377,3.95489 -5.83233,0.6058 -9.29566,1.49468 -12.95236,3.32428 -3.96979,1.98625 -6.01127,3.64046 -10.88423,8.81951 -4.62314,4.91354 -6.23341,6.11761 -9.25828,6.92285 -2.06671,0.55017 -5.78783,0.60839 -7.67785,0.12011 z m -54.15139,-38.90134 c 4.47922,-1.19359 6.52639,-3.46175 6.52639,-7.23093 0,-2.10062 -1.19998,-4.55126 -2.72416,-5.56338 -0.62516,-0.41513 -2.21266,-0.9459 -3.52778,-1.17948 -4.54461,-0.80717 -5.65172,-1.4632 -4.46759,-2.64732 0.65665,-0.65665 0.41822,-0.66009 2.94525,0.0425 1.9478,0.54154 2.15485,0.54123 2.98768,-0.004 1.96379,-1.28673 1.41915,-4.09839 -1.00735,-5.20046 -3.75244,-1.70429 -9.13464,0.0754 -10.99449,3.6354 -0.8062,1.54318 -0.64418,4.89925 0.30447,6.30695 1.27185,1.8873 2.69655,2.63068 5.91367,3.08564 3.08957,0.4369 3.86752,0.81032 3.86752,1.85639 0,1.15718 -1.06281,1.35957 -3.35139,0.6382 -1.18213,-0.37262 -2.5448,-0.57738 -3.08636,-0.46376 -1.97209,0.4137 -2.68683,3.09656 -1.296,4.86471 1.6349,2.07844 4.53301,2.75991 7.91014,1.86 z m 19.41756,-5.61844 c 1.30312,-1.1209 1.22668,-3.09476 -0.36455,-9.41341 -0.7002,-2.78048 -1.19416,-5.26113 -1.09767,-5.51256 0.0965,-0.25142 0.8296,-0.65314 1.62914,-0.89269 2.61626,-0.78385 3.58526,-3.1181 2.08575,-5.02443 -0.98678,-1.25449 -1.82825,-1.20722 -8.61745,0.48409 -6.80501,1.69524 -7.3817,1.91714 -7.89174,3.03656 -0.50264,1.10317 -0.50112,1.6415 0.008,2.7584 0.5141,1.12832 1.3611,1.43449 3.96847,1.43449 h 2.08173 l 1.50015,5.86851 c 0.82508,3.22768 1.68461,6.2132 1.91008,6.63448 0.82489,1.54133 3.34194,1.87068 4.78832,0.62656 z m 9.67474,-2.1873 c 0.62149,-0.32138 1.16967,-1.00248 1.42185,-1.7666 0.47975,-1.45368 0.838,-1.68217 3.88993,-2.48099 3.07019,-0.8036 3.65565,-0.76607 4.94258,0.3168 0.60529,0.50932 1.49311,0.92604 1.97293,0.92604 2.18039,0 3.80612,-1.89659 3.40854,-3.97643 -0.17596,-0.92045 -9.34197,-12.4959 -11.58682,-14.6326 -1.33184,-1.26767 -2.44588,-1.44023 -4.02528,-0.62349 -1.28219,0.66304 -1.38654,1.00856 -3.38679,11.21404 -1.8052,9.21029 -1.79436,9.95481 0.16044,11.01722 1.19286,0.64831 1.95778,0.64974 3.20262,0.006 z m 23.36905,-6.19933 c 1.04345,-1.04345 1.07046,-1.15058 0.84498,-3.35138 -0.1806,-1.76278 -0.1286,-2.27348 0.2315,-2.27348 0.25543,0 1.53744,0.9525 2.84891,2.11666 2.53968,2.25443 3.37878,2.51532 5.14775,1.60055 1.1482,-0.59376 1.43634,-1.17136 1.43634,-2.87924 0,-0.96504 -0.34139,-1.58596 -1.62866,-2.96215 -1.44814,-1.54818 -1.60348,-1.86908 -1.40152,-2.8953 0.7029,-3.57185 0.65761,-4.75969 -0.25777,-6.75913 -1.27801,-2.79155 -3.36335,-4.0964 -6.54667,-4.0964 -2.64437,0 -7.42515,1.18775 -8.64593,2.14802 -0.46032,0.36208 -0.92054,1.09568 -1.02273,1.63023 -0.10972,0.57397 0.61895,4.22329 1.77967,8.91294 1.67812,6.78013 2.10767,8.08325 2.93823,8.91382 1.34367,1.34366 2.8645,1.30627 4.2759,-0.10514 z m 21.94747,-5.06156 c 0.85397,-0.35681 1.30113,-0.84761 1.60154,-1.75786 0.36864,-1.11701 0.24671,-1.95708 -1.05589,-7.27454 -1.6285,-6.64788 -1.62715,-6.66209 0.69941,-7.35915 1.63784,-0.49071 2.49092,-1.53697 2.47518,-3.03567 -0.0137,-1.29929 -0.62101,-2.15821 -1.85895,-2.62887 -1.37726,-0.52364 -13.80412,2.56278 -14.95588,3.71454 -1.0293,1.0293 -1.04831,2.56708 -0.0475,3.83944 0.72447,0.92101 0.88427,0.96348 2.98972,0.79447 1.45098,-0.11647 2.34147,-0.0374 2.56122,0.22736 0.18527,0.22324 0.96522,2.90407 1.7332,5.9574 1.45255,5.77502 2.04822,7.13814 3.34814,7.66174 1.06332,0.42832 1.16592,0.42264 2.50977,-0.13886 z m 17.60334,-4.39928 c 4.74473,-1.15741 5.88368,-1.89809 5.88368,-3.82628 0,-0.80867 -0.29191,-1.48116 -0.91215,-2.10141 -0.84606,-0.84606 -1.05692,-0.89307 -2.91042,-0.64884 -3.99209,0.52602 -4.4552,0.46661 -4.57696,-0.58714 -0.10024,-0.86751 0.056,-0.99757 1.89504,-1.57727 2.36539,-0.74563 3.20622,-1.72761 2.7223,-3.17935 -0.4008,-1.20243 -1.59386,-1.5548 -3.84211,-1.13478 -1.35486,0.25311 -1.80094,0.20867 -2.23198,-0.22237 -0.85898,-0.85899 -0.0657,-1.62771 2.36676,-2.29357 3.40357,-0.93168 4.3824,-2.18668 3.44859,-4.4216 -0.88783,-2.12486 -1.69481,-2.22497 -7.14571,-0.88643 -7.1583,1.75782 -7.21063,1.86533 -5.07412,10.42491 2.17877,8.72885 2.41401,9.49645 3.22728,10.53035 0.95696,1.21657 1.89093,1.20662 7.1498,-0.0762 z m 13.76135,-3.99438 c 0.54724,-0.66488 0.60903,-1.14983 0.40516,-3.17986 -0.17569,-1.74945 -0.12754,-2.39534 0.17856,-2.39534 0.23052,0 1.44862,0.98858 2.70691,2.19684 2.03374,1.9529 2.44583,2.19685 3.71107,2.19685 1.11929,0 1.60366,-0.2097 2.26779,-0.9818 1.40663,-1.6353 1.15643,-3.05999 -0.94489,-5.38033 -1.23525,-1.36401 -1.71749,-2.15722 -1.55721,-2.56138 1.23205,-3.10675 0.94803,-5.93416 -0.84469,-8.40894 -1.99882,-2.7593 -4.9911,-3.36386 -10.27259,-2.0755 -5.90578,1.44066 -5.93003,1.52466 -3.38143,11.7129 1.09848,4.39129 2.16243,8.29282 2.36433,8.67008 0.9246,1.72763 4.01705,1.8466 5.36699,0.20648 z m -122.61865,-23.8463 c 0.56757,-0.72202 0.56437,-0.77271 -0.26705,-4.24083 -0.84613,-3.52945 -0.83919,-3.24085 -0.0779,-3.24085 0.34383,0 1.96752,1.34938 3.60819,2.99861 2.44256,2.45532 3.17795,2.99861 4.05885,2.99861 1.35082,0 2.64392,-0.88024 2.64392,-1.79976 0,-1.10455 -2.8292,-12.07108 -3.24269,-12.5693 -0.20431,-0.24618 -0.91107,-0.4476 -1.57056,-0.4476 -1.90109,0 -2.16111,1.02646 -1.2153,4.7975 1.11593,4.44938 0.72132,4.51873 -3.24384,0.57007 -2.66676,-2.65568 -3.45881,-3.25091 -4.32588,-3.25091 -1.33807,0 -2.6295,0.88393 -2.6295,1.79977 0,0.38578 0.64091,3.27397 1.42425,6.41819 1.04791,4.20616 1.62022,5.88206 2.16584,6.34229 0.82288,0.69412 1.95595,0.53474 2.67171,-0.37579 z m 23.12817,-5.635 c 1.13163,-0.61592 2.00863,-1.44342 2.60098,-2.4542 0.78334,-1.33665 0.87759,-1.84408 0.76321,-4.10905 -0.10695,-2.11799 -0.32064,-2.89029 -1.18469,-4.28168 -1.79969,-2.89807 -4.80769,-3.89742 -8.50031,-2.82407 -4.95121,1.43919 -6.6552,6.30249 -4.01887,11.47012 1.74287,3.4163 6.316,4.38884 10.33968,2.19888 z m 13.69529,-3.59907 c 0.48385,-0.58169 0.54579,-1.31962 0.3888,-4.63184 -0.23491,-4.95596 0.11714,-4.97187 2.56344,-0.11581 1.60586,3.18774 1.86039,3.51087 2.841,3.6068 0.68945,0.0674 1.41953,-0.16397 2.02848,-0.64297 l 0.95135,-0.74833 v -6.12504 c 0,-7.17327 -0.18125,-7.93486 -1.88835,-7.93486 -1.96335,0 -2.12174,0.4836 -1.70278,5.19916 0.35478,3.9933 0.1767,5.31826 -0.60278,4.48459 -0.17234,-0.18433 -0.89791,-1.68452 -1.61237,-3.33375 -1.78296,-4.11574 -2.12644,-4.58612 -3.34887,-4.58612 -1.96075,0 -2.16908,0.60644 -1.90504,5.54546 0.29654,5.54686 -0.0883,5.62038 -2.36134,0.45104 -1.77421,-4.03499 -2.26219,-4.55912 -3.75777,-4.03618 -1.73895,0.60804 -1.50088,1.7216 1.65354,7.73433 1.57601,3.00408 3.13436,5.62532 3.46298,5.82496 0.83389,0.5066 2.60237,0.13489 3.28971,-0.69144 z m 30.22837,-7.27755 c 3.1112,-1.55038 4.3219,-4.55766 3.4846,-8.65549 -0.40163,-1.96559 -2.16909,-4.14108 -4.03498,-4.96645 -3.01801,-1.33501 -7.4852,-0.25101 -9.37826,2.27571 -1.11294,1.48547 -1.37318,2.39344 -1.34569,4.69503 0.0363,3.04194 1.31323,5.39156 3.75375,6.90731 1.64969,1.02458 5.19269,0.90393 7.52058,-0.25611 z m 11.5435,-2.98006 c 0.63574,-0.70248 0.63232,-0.80424 -0.13252,-3.94031 -1.09814,-4.50272 -0.7424,-4.63937 2.85741,-1.0976 1.59801,1.57225 3.27044,3.04472 3.7165,3.27215 1.12736,0.57481 3.17783,-0.11518 3.43687,-1.15651 0.18599,-0.74771 -1.93463,-10.38511 -2.71186,-12.3243 -0.49318,-1.23049 -1.7781,-1.5877 -2.94972,-0.82002 -1.05439,0.69087 -1.06767,1.03007 -0.17381,4.44048 0.3814,1.45521 0.69618,2.84427 0.6995,3.0868 0.015,1.09354 -1.36836,0.21808 -3.81241,-2.41271 -1.45813,-1.56953 -3.04397,-3.00305 -3.5241,-3.18559 -1.26057,-0.47927 -3.18607,0.23044 -3.44713,1.27057 -0.22531,0.89774 2.11531,11.05505 2.90766,12.61801 0.60688,1.19711 2.16364,1.32083 3.13361,0.24903 z"
         id="path33073"
         inkscape:connector-curvature="0" />
      <path
         style="fill:#000000;fill-opacity:1;stroke-width:0.35277778"
         d="m 239.52041,321.64261 c -0.67725,-0.80487 -1.30625,-2.80384 -2.74737,-8.73125 -1.02796,-4.22807 -1.85292,-8.0658 -1.83323,-8.52829 0.0945,-2.21958 1.88785,-3.44605 4.13261,-2.82624 1.47517,0.40732 1.59401,0.57525 2.34274,3.3105 0.87764,3.20614 1.51082,2.92638 3.18503,-1.40726 0.74959,-1.94028 1.70189,-3.80559 2.11623,-4.14514 1.08162,-0.8864 2.91067,-0.78475 4.08706,0.22714 1.32186,1.13702 1.28402,2.74184 -0.1527,6.47621 -0.61597,1.60104 -1.03853,3.12314 -0.93903,3.38245 0.0995,0.2593 1.29246,1.3165 2.65102,2.34932 3.13594,2.38408 4.20104,3.65006 4.20104,4.99339 0,1.35862 -1.69096,3.1208 -2.99467,3.1208 -1.23587,0 -1.93646,-0.39654 -5.38942,-3.05044 -3.54959,-2.72817 -4.15371,-2.84569 -3.81376,-0.74193 0.70938,4.38992 0.69268,4.74627 -0.26737,5.70632 -1.33265,1.33266 -3.39411,1.2716 -4.57818,-0.13558 z m 20.69962,-4.30765 c -1.08532,-0.52552 -1.36199,-1.31077 -3.50219,-9.93979 -2.14442,-8.64604 -2.15718,-9.60201 -0.14217,-10.64401 1.46275,-0.75642 2.3059,-0.64947 3.52487,0.4471 0.97754,0.8794 1.25855,1.68976 3.00418,8.66333 1.05917,4.23126 1.92576,8.17253 1.92576,8.75839 0,2.23132 -2.68255,3.74533 -4.81045,2.71498 z m 12.92434,-3.44506 c -3.08068,-0.9405 -5.79716,-3.33979 -7.1476,-6.31303 -1.12987,-2.48761 -1.09272,-7.02839 0.077,-9.40847 1.25316,-2.54993 3.71399,-4.86462 6.13459,-5.77029 5.54273,-2.0738 12.57772,0.43983 12.57772,4.49407 0,2.84827 -2.17765,3.85262 -5.17063,2.38473 -3.34014,-1.63816 -6.0008,-1.07748 -7.36002,1.55096 -1.54293,2.98368 0.70108,6.78536 4.00517,6.78536 1.83807,0 3.05226,-0.72656 4.57664,-2.73858 1.42244,-1.87748 2.45625,-2.33799 4.20899,-1.87487 1.44244,0.38113 2.36242,2.00295 2.05766,3.62743 -0.50779,2.70677 -3.38107,5.6559 -6.82286,7.00298 -1.56672,0.61319 -5.50883,0.75665 -7.13661,0.25971 z m 18.30389,-4.56518 c -1.21878,-0.95868 -1.399,-1.46916 -3.50076,-9.91556 -1.87059,-7.51739 -1.97421,-8.89983 -0.75017,-10.00758 0.9844,-0.89087 2.63323,-1.08049 3.86348,-0.4443 0.8665,0.44808 1.19424,0.96209 1.65271,2.59197 0.81988,2.91468 0.82002,2.91499 1.3736,2.91499 0.31282,0 0.99869,-1.30385 1.80935,-3.43959 0.73029,-1.92399 1.68768,-3.78933 2.17279,-4.23333 1.88157,-1.72215 5.09437,-0.45244 5.15781,2.03838 0.0171,0.67365 -0.49071,2.60284 -1.1286,4.28709 -0.6379,1.68425 -1.10321,3.225 -1.03404,3.42387 0.0692,0.19888 1.47307,1.44035 3.11976,2.75883 1.64669,1.31848 3.20533,2.83819 3.46363,3.37713 1.02865,2.14619 -1.13143,4.87942 -3.40881,4.31332 -0.51268,-0.12744 -2.36089,-1.30039 -4.10714,-2.60656 -1.74625,-1.30617 -3.39119,-2.50516 -3.65542,-2.66442 -0.82902,-0.49968 -1.02494,0.46467 -0.51999,2.55962 0.82409,3.41909 0.0685,5.17857 -2.39553,5.57843 -0.87638,0.14222 -1.43369,0.002 -2.11267,-0.53229 z"
         id="path33061"
         inkscape:connector-curvature="0" />
    </g>
  </g>
</svg>
